# xmcd
#
# Track frame offsets: 
#        150
#        4885
#        22632
#        35772
#        57322
#        69897
#        81995
#        92940
#        108050
#        119185
#        136225
#        148482
#        159967
#        174787
#        189712
#        206260
#
# Disc length: 2869 seconds
#
# Revision: 0
# Processed by: cddbd v1.5.2PL0 Copyright (c) Steve Scherf et al.
# Submitted via: ExactAudioCopy v0.95b4
#
DISCID=d60b3310
DTITLE=Howlin Houndog and The Infaamous Loosers - Howlin Houndog and The I
DTITLE=nfamous Loosers
DYEAR=2006
DGENRE=Blues
TTITLE0=Intro
TTITLE1=Tell Me Mamma
TTITLE2=Key To The Highway
TTITLE3=Lowdown Blues
TTITLE4=I'll Never Fall In Love Again
TTITLE5=Benson Arizona
TTITLE6=Frying Pan
TTITLE7=Nuevo Song
TTITLE8=I Got A Little
TTITLE9=Psycho
TTITLE10=Putting Me In The Ground
TTITLE11=I Couldn't Spell @#%&!
TTITLE12=Sho Nuff, Yes I Do
TTITLE13=Trucker's Lullabye
TTITLE14=Disfigured
TTITLE15=Bonus Track
EXTD=
EXTT0=
EXTT1=
EXTT2=
EXTT3=
EXTT4=
EXTT5=
EXTT6=
EXTT7=
EXTT8=
EXTT9=
EXTT10=
EXTT11=
EXTT12=
EXTT13=
EXTT14=
EXTT15=
PLAYORDER=
